<svg width="34" height="34" viewBox="0 0 34 34" fill="none" xmlns="http://www.w3.org/2000/svg">
<path d="M17 34C26.3888 34 34 26.3888 34 17C34 7.61116 26.3888 0 17 0C7.61116 0 0 7.61116 0 17C0 26.3888 7.61116 34 17 34Z" fill="#E84142"/>
<path d="M22.9969 17.4417C23.5859 16.4244 24.5363 16.4244 25.1253 17.4417L28.793 23.8803C29.382 24.8976 28.9001 25.7275 27.7221 25.7275H20.3332C19.1686 25.7275 18.6867 24.8976 19.2623 23.8803L22.9969 17.4417ZM15.9025 5.04644C16.4914 4.02912 17.4284 4.02912 18.0174 5.04644L18.834 6.51888L20.7615 9.90549C20.9928 10.3833 21.113 10.9073 21.113 11.4382C21.113 11.969 20.9928 12.493 20.7615 12.9708L14.2962 24.1748C14.0072 24.6234 13.6168 24.9978 13.1563 25.2675C12.6959 25.5373 12.1784 25.6949 11.6458 25.7275H6.27805C5.1001 25.7275 4.61821 24.911 5.20718 23.8803L15.9025 5.04644Z" fill="white"/>
</svg>
