<svg width="156" height="21" viewBox="0 0 156 21" fill="none" xmlns="http://www.w3.org/2000/svg">
<g clip-path="url(#clip0_13_1896)">
<path d="M1.47114 20.6594L2.97661 19.0736H9.19385C10.326 19.1064 11.426 18.7053 12.2565 17.9569C12.6607 17.6073 12.982 17.1766 13.1982 16.6946C13.4145 16.2127 13.5206 15.6908 13.5092 15.1651C13.5172 14.6399 13.4096 14.1191 13.1935 13.6376C12.9775 13.1561 12.658 12.725 12.2565 12.3733C11.426 11.6249 10.326 11.2238 9.19385 11.2566H6.06225C5.26668 11.2624 4.47713 11.1222 3.73509 10.8434C3.00553 10.5764 2.3362 10.1744 1.76419 9.65966C1.20492 9.16422 0.760325 8.559 0.45983 7.88407C0.155719 7.22262 -0.00146484 6.50629 -0.00146484 5.78183C-0.00146484 5.05737 0.155719 4.34105 0.45983 3.6796C0.765617 3.00758 1.20948 2.40336 1.76419 1.90401C2.33757 1.38415 3.00869 0.976554 3.74084 0.70353C4.47286 0.423438 5.25253 0.27949 6.03926 0.279175H13.0839L11.6359 1.86492H6.06225C5.49677 1.86005 4.9354 1.95854 4.40738 2.15527C3.88512 2.34262 3.40654 2.62924 2.99959 2.9984C2.60643 3.35616 2.29301 3.78853 2.07875 4.26875C1.86448 4.74896 1.75393 5.2668 1.75393 5.79021C1.75393 6.31362 1.86448 6.83146 2.07875 7.31167C2.29301 7.79189 2.60643 8.22426 2.99959 8.58202C3.40654 8.95117 3.88512 9.2378 4.40738 9.42515C4.9354 9.62187 5.49677 9.72037 6.06225 9.71549H9.19385C9.99053 9.71501 10.7801 9.86089 11.521 10.1454C12.2507 10.4198 12.9197 10.8273 13.4919 11.3459C14.0461 11.847 14.4915 12.4507 14.802 13.1215C15.1011 13.7813 15.2557 14.4944 15.256 15.2154C15.2445 15.9375 15.0823 16.6499 14.779 17.3092C14.4708 17.9846 14.0252 18.5923 13.4689 19.096C12.8925 19.6036 12.2216 19.9997 11.4923 20.263C10.7465 20.5359 9.95626 20.6759 9.15938 20.6761L1.47114 20.6594Z" fill="white"/>
<path d="M20.979 0.279175H19.3472V20.6761H20.979V0.279175Z" fill="white"/>
<path d="M35.8958 21C34.4749 21.0018 33.0681 20.7265 31.7586 20.1904C30.4473 19.6577 29.2564 18.8798 28.2535 17.9011C26.7439 16.4309 25.7161 14.5592 25.2999 12.5221C24.8837 10.485 25.0977 8.37375 25.9149 6.45469C26.4508 5.19587 27.2445 4.05606 28.2478 3.10451C29.2435 2.1093 30.4383 1.32263 31.7586 0.792894C34.4082 -0.260554 37.3776 -0.260554 40.0272 0.792894C41.1553 1.24849 42.1935 1.89083 43.0956 2.69132L41.9464 3.80805C41.1844 3.1577 40.3164 2.63502 39.3779 2.26139C38.2583 1.81536 37.0599 1.58586 35.8498 1.58577C34.0365 1.58199 32.2629 2.10165 30.754 3.07884C29.245 4.05603 28.0688 5.44671 27.3744 7.07447C26.4551 9.2766 26.4551 11.7402 27.3744 13.9423C27.8295 15.0184 28.5083 15.9917 29.3683 16.8011C30.9499 18.3451 33.0594 19.2717 35.2971 19.4055C37.5348 19.5393 39.7452 18.8709 41.5097 17.527L41.7281 17.3651V9.68202H43.337V18.0574C42.3682 18.9599 41.2364 19.6811 39.9985 20.1848C38.6995 20.7162 37.3053 20.9932 35.8958 21Z" fill="white"/>
<path d="M66.8615 20.6761V2.44004L57.9723 12.3007L49.1119 2.43445V18.2696L47.48 19.8777V0.279175H49.3187L57.9723 9.9165L66.6546 0.279175H68.4704V20.6761H66.8615Z" fill="white"/>
<path d="M97.6833 20.6594V0.279195H104.492C105.875 0.276485 107.245 0.541185 108.521 1.05788C109.798 1.57457 110.956 2.33292 111.928 3.28877C112.912 4.22933 113.694 5.35118 114.226 6.58869C115.278 9.09424 115.278 11.9002 114.226 14.4058C113.694 15.6433 112.912 16.7651 111.928 17.7057C110.945 18.6439 109.786 19.3906 108.515 19.9056C107.241 20.4255 105.874 20.6914 104.492 20.6873L97.6833 20.6594ZM99.321 19.0737H104.492C105.656 19.0782 106.809 18.8579 107.884 18.4256C108.959 17.9932 109.935 17.3576 110.756 16.5555C111.574 15.753 112.225 14.8052 112.675 13.7636C113.134 12.7247 113.371 11.6057 113.37 10.4749C113.371 9.34038 113.14 8.21696 112.692 7.16938C111.77 5.06367 110.044 3.38679 107.877 2.49031C106.8 2.05592 105.646 1.83203 104.481 1.83144H99.3095L99.321 19.0737Z" fill="white"/>
<path d="M153.96 20.6761L146.99 11.787L140.055 20.6761H138.015L145.985 10.5084L138.015 0.279175H140.055L146.99 9.1683L153.96 0.279175H156L148.03 10.5084L156 20.6761H153.96Z" fill="white"/>
<path d="M134.32 5.14251L135.176 0.279175H120.955L120.61 2.18319L128.31 10.6089L117.599 18.7777L117.254 20.6761H131.47L132.464 15.3885L128.752 19.0904H119.191L130.355 10.6089C127.643 7.69422 124.935 4.77771 122.23 1.85934H132.734L134.32 5.14251Z" fill="#51EDFF"/>
<path d="M91.3626 4.46695V18.9844H77.0951L84.3294 11.614L91.3626 4.46695ZM93.0864 0.284817L73.0671 20.6595H93.0864V0.268066V0.284817Z" fill="white"/>
</g>
<defs>
<clipPath id="clip0_13_1896">
<rect width="156" height="21" fill="white"/>
</clipPath>
</defs>
</svg>
