<svg width="23" height="18" viewBox="0 0 23 18" fill="none" xmlns="http://www.w3.org/2000/svg">
<path d="M22.9105 2.15922C22.1805 2.47328 21.3748 2.66303 20.5898 2.78735C20.9616 2.72846 21.5125 2.0807 21.7329 1.82552C22.0703 1.42639 22.3458 0.974919 22.5042 0.484188C22.5248 0.44493 22.5386 0.399128 22.5042 0.366413C22.456 0.346783 22.4215 0.35987 22.3802 0.372956C21.4988 0.817885 20.5898 1.14504 19.6188 1.37405C19.5362 1.39368 19.4811 1.37405 19.426 1.32824C19.3434 1.24318 19.2676 1.15812 19.185 1.09269C18.7787 0.76554 18.338 0.503817 17.8491 0.314068C17.2018 0.0654312 16.4925 -0.0458011 15.797 4.74043e-07C15.1221 0.0392589 14.4542 0.222465 13.8551 0.523447C13.2491 0.824428 12.7119 1.23664 12.285 1.74046C11.8443 2.25736 11.5137 2.87241 11.3485 3.52672C11.1901 4.15485 11.197 4.77645 11.3003 5.41112C11.314 5.51581 11.3003 5.5289 11.2039 5.51581C7.41644 4.98582 4.27632 3.69684 1.72153 0.93566C1.61135 0.817885 1.54937 0.817885 1.45985 0.942203C0.344282 2.53217 0.888295 5.08397 2.27931 6.34024C2.46524 6.51036 2.65806 6.67394 2.86464 6.82443C2.78889 6.83751 1.85925 6.74591 1.03291 6.34024C0.922726 6.27481 0.867636 6.31407 0.853863 6.43184C0.846977 6.60196 0.853863 6.759 0.881408 6.94875C1.09488 8.55834 2.27243 10.0502 3.87692 10.6325C4.06973 10.711 4.27632 10.7764 4.48291 10.8092C4.11794 10.8877 3.73919 10.94 2.6856 10.8615C2.55476 10.8353 2.50656 10.9008 2.55476 11.0185C3.34668 13.0665 5.04758 13.675 6.32841 14.0153C6.50057 14.0414 6.67273 14.0414 6.84488 14.0807C6.838 14.0938 6.82422 14.0938 6.81734 14.1069C6.39728 14.7219 4.92362 15.1734 4.24189 15.4024C2.99548 15.8146 1.64578 15.9978 0.33051 15.88C0.117037 15.8539 0.0757196 15.8539 0.0206298 15.88C-0.0344601 15.9128 0.0137435 15.9586 0.0826058 16.0109C0.351169 16.181 0.619732 16.325 0.895181 16.4689C1.72841 16.8877 2.60297 17.2214 3.51195 17.4635C8.20835 18.6936 13.5039 17.7906 17.0296 14.4602C19.7979 11.843 20.7688 8.23773 20.7688 4.62595C20.7688 4.48201 20.9479 4.40349 21.0512 4.33152C21.7742 3.81461 22.3458 3.19956 22.8829 2.51254C23.0069 2.35551 22.9931 2.2181 22.9931 2.16576V2.14613C22.9931 2.08724 23 2.10687 22.9105 2.14613V2.15922Z" fill="#00CCFF"/>
</svg>
